HIERARCHY
ROOT root
{
	OFFSET 0.000000 0.000000 0.000000
	CHANNELS 6 Xposition Yposition Zposition Zrotation Yrotation Xrotation
	JOINT lhip
	{
		OFFSET 0.058581 -0.082280 -0.017664
		CHANNELS 3 Zrotation Yrotation Xrotation
		JOINT lknee
		{
			OFFSET 0.043451 -0.386469 0.008037
			CHANNELS 3 Zrotation Yrotation Xrotation
			JOINT lankle
			{
				OFFSET -0.014790 -0.426874 -0.037428
				CHANNELS 3 Zrotation Yrotation Xrotation
				JOINT ltoe
				{
					OFFSET 0.041054 -0.060286 0.122042
					CHANNELS 3 Zrotation Yrotation Xrotation
					End Site
					{
						OFFSET 0.000000 0.000000 0.000000
					}
				}
			}
		}
	}
	JOINT rhip
	{
		OFFSET -0.060310 -0.090513 -0.013543
		CHANNELS 3 Zrotation Yrotation Xrotation
		JOINT rknee
		{
			OFFSET -0.043257 -0.383688 -0.004843
			CHANNELS 3 Zrotation Yrotation Xrotation
			JOINT rankle
			{
				OFFSET 0.019056 -0.420046 -0.034562
				CHANNELS 3 Zrotation Yrotation Xrotation
				JOINT rtoe
				{
					OFFSET -0.034840 -0.062106 0.130323
					CHANNELS 3 Zrotation Yrotation Xrotation
					End Site
					{
						OFFSET 0.000000 0.000000 0.000000
					}
				}
			}
		}
	}
	JOINT lowerback
	{
		OFFSET 0.004439 0.124404 -0.038385
		CHANNELS 3 Zrotation Yrotation Xrotation
		JOINT upperback
		{
			OFFSET 0.004488 0.137956 0.026820
			CHANNELS 3 Zrotation Yrotation Xrotation
			JOINT chest
			{
				OFFSET -0.002265 0.056032 0.002855
				CHANNELS 3 Zrotation Yrotation Xrotation
				JOINT lowerneck
				{
					OFFSET -0.013390 0.211636 -0.033468
					CHANNELS 3 Zrotation Yrotation Xrotation
					JOINT upperneck
					{
						OFFSET 0.010113 0.088937 0.050410
						CHANNELS 3 Zrotation Yrotation Xrotation
						End Site
						{
							OFFSET 0.000000 0.000000 0.000000
						}
					}
				}
				JOINT lclavicle
				{
					OFFSET 0.071702 0.114000 -0.018898
					CHANNELS 3 Zrotation Yrotation Xrotation
					JOINT lshoulder
					{
						OFFSET 0.122921 0.045205 -0.019046
						CHANNELS 3 Zrotation Yrotation Xrotation
						JOINT lelbow
						{
							OFFSET 0.255332 -0.015649 -0.022946
							CHANNELS 3 Zrotation Yrotation Xrotation
							JOINT lwrist
							{
								OFFSET 0.265709 0.012698 -0.007375
								CHANNELS 3 Zrotation Yrotation Xrotation
								End Site
								{
									OFFSET 0.000000 0.000000 0.000000
								}
							}
						}
					}
				}
				JOINT rclavicle
				{
					OFFSET -0.082954 0.112472 -0.023707
					CHANNELS 3 Zrotation Yrotation Xrotation
					JOINT rshoulder
					{
						OFFSET -0.113228 0.046853 -0.008472
						CHANNELS 3 Zrotation Yrotation Xrotation
						JOINT relbow
						{
							OFFSET -0.260127 -0.014369 -0.031269
							CHANNELS 3 Zrotation Yrotation Xrotation
							JOINT rwrist
							{
								OFFSET -0.269108 0.006794 -0.006027
								CHANNELS 3 Zrotation Yrotation Xrotation
								End Site
								{
									OFFSET 0.000000 0.000000 0.000000
								}
							}
						}
					}
				}
			}
		}
	}
}
MOTION
Frames: 16
Frame Time: 0.033333
-0.101266 0.830080 0.995016 -10.140499 -0.410399 92.180336 8.741850 4.717086 0.928773 -2.324071 -0.799701 -2.241271 1.583904 10.460560 -8.586189 0.000000 -0.000000 0.000000 -6.797623 -3.643753 -3.597564 6.311906 -2.140789 4.339032 7.043370 1.581961 -2.700362 0.000000 -0.000000 0.000000 4.683827 0.070055 -5.891879 1.419186 -2.018165 11.652976 -2.007927 0.640618 -4.971502 -4.153098 3.104250 -1.295530 -1.730934 -1.848433 18.914606 -35.162004 -1.194726 4.544259 -52.512931 -6.651898 16.692768 5.248567 -21.609628 3.800993 -1.988561 -12.937495 -1.208011 34.583811 4.009606 8.447666 48.046283 8.103100 8.659254 -14.012301 17.071408 -21.587181 6.053192 11.363911 -19.029498 
-0.105046 0.831206 0.995181 -10.040302 -0.420195 91.891171 9.065724 4.602260 1.281547 -2.480042 -1.565457 -2.494851 0.808239 10.057362 -9.687002 0.000000 -0.000000 0.000000 -6.558462 -3.787813 -3.534768 5.931543 -2.890781 5.102504 4.756524 -0.305550 -5.242945 0.000000 -0.000000 0.000000 4.711355 0.065539 -5.212469 1.381764 -2.112329 11.023496 -1.775336 0.678450 -4.550388 -4.210365 2.889941 -1.936740 -2.078390 -1.694554 19.582259 -35.032891 -1.417849 4.451195 -52.622233 -6.379221 16.565155 5.164252 -21.765439 3.516636 -0.880621 -12.277643 -1.935408 34.387628 4.331135 8.366993 48.260499 7.724469 8.658702 -14.435916 17.605438 -21.383092 5.952686 11.137212 -19.400962 
-0.109185 0.831774 0.995388 -9.731712 -0.532945 91.589893 9.232363 4.774010 1.470214 -2.400677 -1.845245 -2.398731 0.294277 9.939761 -9.763911 0.000000 -0.000000 0.000000 -6.477253 -4.251032 -3.396979 5.389774 -4.349199 5.875621 2.266026 -2.044755 -7.372459 0.000000 -0.000000 0.000000 4.668541 -0.131614 -4.844838 1.341705 -2.132768 10.796852 -1.592108 0.635659 -4.394353 -4.372423 2.722777 -1.654405 -2.382332 -1.523458 19.198183 -35.080493 -1.606340 4.377229 -52.260421 -5.925456 16.514905 5.142907 -22.158509 2.945564 -0.620638 -11.727437 -2.109151 34.600398 4.741195 8.233978 47.948133 7.175876 8.658438 -14.180838 17.617641 -21.623099 5.760528 11.199946 -19.694098 
-0.116269 0.834658 0.995894 -9.489897 -0.557077 91.493722 9.701193 4.825605 1.139427 -2.377785 -1.828220 -1.905414 -0.253308 9.726486 -9.509031 0.000000 -0.000000 0.000000 -6.141960 -4.234145 -3.411332 5.646847 -4.618823 6.184677 2.361624 -2.354299 -8.776930 0.000000 -0.000000 0.000000 4.774218 -0.142114 -4.881537 1.402179 -2.189966 11.411203 -1.559290 0.590721 -4.267573 -4.384119 3.078008 -1.581657 -3.005197 -1.718045 18.009498 -35.201174 -2.108596 4.054162 -51.699789 -5.744178 16.601106 5.354491 -22.283448 2.418992 -0.177876 -11.307393 -1.422223 34.968143 5.174324 7.990503 47.530193 7.054443 8.633298 -14.151128 17.633247 -22.103937 5.786861 11.051079 -19.534507 
-0.118568 0.835386 0.995779 -9.307475 -0.896713 91.403702 9.392783 4.900052 1.058971 -2.240994 -1.987069 -1.660864 -0.246600 9.593116 -9.567386 0.000000 -0.000000 0.000000 -6.590172 -6.006763 -4.336444 4.069198 -9.077715 7.598418 2.510957 -6.439662 -7.273505 0.000000 -0.000000 0.000000 4.424466 -0.230756 -4.813582 1.490976 -2.016244 11.547874 -1.608101 0.310635 -4.223807 -4.007316 3.595561 -1.578223 -3.265327 -2.293450 17.672330 -35.019853 -1.712880 4.175616 -51.745586 -6.398983 16.679538 5.396455 -21.995041 2.128329 -0.720333 -11.972588 -1.155245 35.087077 5.466088 7.947990 47.700515 6.845059 8.589178 -14.282088 17.561114 -22.554192 5.442855 11.361375 -19.238533 
-0.123607 0.837134 0.996095 -8.935872 -0.908189 91.060265 9.722234 4.860144 1.241199 -2.216644 -2.224284 -1.487384 -0.451575 9.448526 -9.369191 0.000000 -0.000000 0.000000 -6.408709 -6.226197 -3.923518 4.263256 -9.319277 7.714725 2.277182 -6.129261 -8.000436 0.000000 -0.000000 0.000000 4.694620 -0.322144 -4.110919 1.417933 -2.017890 11.276388 -1.585046 0.306323 -4.217665 -4.030099 3.640595 -1.424256 -3.290784 -2.558571 17.530356 -35.060681 -1.874561 4.342660 -51.661991 -6.393610 16.377514 5.463047 -22.185645 2.277399 -0.476012 -12.089448 -1.547326 34.919460 5.483290 7.957260 48.054595 6.647992 8.488638 -14.512072 17.727837 -22.226005 5.204435 11.413199 -19.574235 
-0.128629 0.839818 0.996126 -8.467979 -0.919291 91.072578 10.068651 4.699145 0.785643 -2.266102 -2.320965 -1.006304 -0.675371 9.283391 -9.260093 0.000000 -0.000000 0.000000 -6.175972 -6.272754 -3.944814 4.518503 -9.445657 7.701380 2.244365 -6.199719 -8.521674 0.000000 -0.000000 0.000000 4.963493 -0.440469 -3.686414 1.389067 -2.042525 10.868866 -1.573765 0.309178 -4.159052 -4.064268 3.471040 -1.510502 -3.487683 -2.728599 17.646018 -35.077718 -1.844022 4.363566 -51.643011 -6.361296 16.342343 5.635710 -22.606412 2.420182 -0.266085 -11.967326 -1.896588 34.713753 5.499864 8.024581 48.233992 6.419162 8.620141 -14.695885 18.071643 -21.945639 4.717004 11.306980 -19.777220 
-0.133797 0.842128 0.996048 -7.958681 -1.048162 90.918008 10.327172 4.652530 0.572681 -2.351636 -2.465553 -0.707915 -0.936087 9.065297 -9.081345 0.000000 -0.000000 0.000000 -6.079501 -6.252696 -3.716458 4.800824 -9.585523 7.623023 2.094432 -6.482644 -9.181199 0.000000 -0.000000 0.000000 5.089188 -0.474102 -3.455268 1.370094 -2.034328 11.013269 -1.523152 0.255393 -4.167865 -4.133885 3.434799 -1.417866 -3.566472 -2.967227 17.276348 -35.068676 -1.811981 4.247095 -51.677415 -6.489786 16.186358 5.714602 -23.005640 2.430525 -0.331575 -11.973592 -2.201874 34.526323 5.543232 8.100705 48.280982 6.427075 8.541368 -14.487400 17.860571 -21.792282 4.854106 11.209337 -20.120750 
-0.138935 0.844682 0.995747 -7.305582 -1.163908 90.869283 10.589838 4.503069 0.110808 -2.433381 -2.571818 -0.251076 -1.154511 8.771277 -8.897846 0.000000 -0.000000 0.000000 -5.948584 -6.303698 -3.698661 4.991550 -9.647360 7.760172 1.881537 -6.637395 -9.798651 0.000000 -0.000000 0.000000 5.212383 -0.435893 -3.384779 1.348905 -2.103422 11.210330 -1.504734 0.221056 -4.076700 -4.033154 3.281686 -1.492007 -3.587292 -3.276765 17.088818 -35.094359 -1.975487 4.482481 -51.736326 -6.721732 15.834704 6.102518 -23.677033 2.126148 -0.326820 -12.141137 -2.435133 34.479280 5.648865 7.986472 48.140499 6.232005 8.373018 -14.586102 17.877346 -21.746271 4.537976 11.486365 -20.010987 
-0.144054 0.847150 0.995535 -6.725596 -1.245474 90.884715 10.898751 4.591198 -0.425931 -2.566174 -2.774554 0.230959 -1.388504 8.533238 -8.741888 0.000000 -0.000000 0.000000 -5.729751 -6.409012 -3.721388 5.153756 -9.725633 7.807396 1.892190 -6.629472 -10.541938 0.000000 -0.000000 0.000000 5.360647 -0.490128 -2.796332 1.376950 -2.093981 10.826201 -1.425491 0.392386 -4.320601 -4.170422 2.792326 -1.534800 -3.644820 -3.407488 17.265083 -35.181896 -1.770272 4.475703 -51.851526 -6.503799 15.840052 6.481602 -24.572966 1.945191 0.275060 -11.947200 -2.738681 34.270826 5.574053 7.708207 48.096594 5.620283 8.246182 -14.460140 17.798501 -21.509958 4.492331 11.443414 -20.230362 
-0.148961 0.849140 0.995370 -6.049975 -1.309574 90.738795 11.222804 4.493746 -0.699654 -2.674361 -2.939672 0.542772 -1.760147 8.302577 -8.373760 0.000000 -0.000000 0.000000 -5.544594 -6.480094 -3.563842 5.385271 -9.874931 7.844730 1.716973 -6.845446 -11.154024 0.000000 -0.000000 0.000000 5.520090 -0.479094 -2.495173 1.420048 -2.097763 10.631511 -1.369166 0.505175 -4.291756 -4.060613 2.403399 -1.341230 -3.825528 -3.757540 17.285900 -35.334572 -1.778049 4.602072 -51.909568 -6.489809 15.714862 6.910331 -25.274706 1.628267 0.171470 -11.418795 -3.111023 34.001210 5.527712 7.628156 48.109728 5.096891 8.251831 -14.896686 18.261460 -21.319882 4.861692 10.601699 -20.461373 
-0.153755 0.851373 0.995404 -5.539866 -1.494874 90.694146 11.364496 4.299440 -1.125316 -2.717259 -3.086486 1.073761 -2.114178 8.129570 -8.223460 0.000000 -0.000000 0.000000 -5.475533 -6.533825 -3.599020 5.570674 -10.045834 7.972191 1.410784 -7.016696 -11.678535 0.000000 -0.000000 0.000000 5.641740 -0.433609 -2.359206 1.380422 -2.071703 10.709252 -1.370744 0.476345 -4.223161 -4.080655 2.323290 -1.508293 -3.704665 -3.911600 17.277710 -35.479165 -1.602111 4.524105 -51.850751 -6.591548 15.366797 6.977851 -25.707539 1.535727 0.452701 -11.795063 -3.385987 34.104036 5.549482 7.738398 47.693290 5.198117 7.909195 -14.927803 17.857531 -21.321608 4.260552 11.069034 -20.001628 
-0.158706 0.852637 0.995498 -5.019310 -1.756776 90.425345 11.463008 4.223808 -1.103207 -2.782235 -3.204360 1.137414 -2.342865 7.915146 -7.663951 0.000000 -0.000000 0.000000 -5.488466 -6.619825 -3.355380 5.695634 -10.208026 8.126442 1.171751 -7.135346 -11.985679 0.000000 -0.000000 0.000000 5.582695 -0.445536 -2.094258 1.375910 -1.932319 10.828967 -1.310096 0.494883 -4.220142 -4.093621 2.175510 -1.541952 -3.822403 -4.183547 17.441089 -35.607811 -1.487101 4.663722 -51.766429 -6.714040 15.045408 7.217259 -26.050529 1.379056 0.431096 -11.935429 -3.609767 34.051193 5.572830 7.748280 47.494970 5.126168 7.711428 -15.130148 17.475935 -21.363661 4.076812 11.069855 -19.858292 
-0.163454 0.853962 0.995641 -4.645359 -1.991394 90.212512 11.592014 4.122208 -1.167626 -2.919380 -3.088631 1.323765 -2.606303 7.768524 -7.192381 0.000000 -0.000000 0.000000 -5.453904 -6.658297 -3.275357 5.777251 -10.282067 8.321833 0.926827 -7.139626 -12.209531 0.000000 -0.000000 0.000000 5.567674 -0.397597 -1.805780 1.348411 -1.862679 10.775685 -1.278429 0.573069 -4.164239 -3.968674 2.235450 -1.534013 -3.919512 -4.237787 17.619573 -35.677644 -1.466159 4.728794 -51.774324 -6.663710 14.861502 7.525085 -26.076613 0.927534 0.530089 -12.179079 -3.832560 34.011848 5.577854 7.709195 47.314490 5.231493 7.571482 -15.472220 17.030977 -21.390120 4.150268 10.807020 -19.358390 
-0.168093 0.854856 0.995669 -4.192532 -2.171492 89.890293 11.773635 4.078610 -1.113104 -3.004743 -3.177654 1.509898 -2.873803 7.546135 -6.640514 0.000000 -0.000000 0.000000 -5.371553 -6.745827 -3.027147 5.806821 -10.434944 8.499666 0.821828 -7.143473 -12.260584 0.000000 -0.000000 0.000000 5.611973 -0.322985 -1.542844 1.334106 -1.801745 10.808364 -1.243298 0.500568 -4.008912 -4.029947 2.152940 -1.532202 -3.941147 -4.431656 17.618495 -35.751029 -1.371267 4.850136 -51.688395 -6.683964 14.612822 7.516019 -25.837934 1.022239 0.528757 -12.350304 -3.848876 33.914256 5.639038 7.665853 47.133968 5.339777 7.430151 -15.711742 16.599688 -21.311574 4.159981 10.853912 -19.066114 
-0.172879 0.856117 0.995790 -3.734223 -2.399046 89.646249 11.932511 4.088308 -1.344214 -3.144248 -3.132463 1.939757 -3.158228 7.422967 -6.118982 0.000000 -0.000000 0.000000 -5.307914 -6.770530 -2.743060 5.867974 -10.630241 8.361869 0.646669 -7.344632 -12.207925 0.000000 -0.000000 0.000000 5.528637 -0.317223 -1.227911 1.284939 -1.814151 10.851748 -1.185123 0.482849 -4.053147 -3.986792 2.101241 -1.482422 -4.029067 -4.436302 17.571093 -35.783951 -1.320972 5.044715 -51.606115 -6.617436 14.361631 7.721660 -25.720963 0.842749 0.733074 -12.158723 -3.826882 33.824393 5.805753 7.685532 47.036207 5.427111 7.319937 -15.898731 16.298841 -21.416047 3.841571 10.744011 -18.962656 
